<svg width="14" height="14" viewBox="0 0 14 14" fill="none" xmlns="http://www.w3.org/2000/svg">
<g clip-path="url(#clip0_91_709)">
<path d="M11.822 4.60447L8.5361 4.12692L7.06723 1.14907C7.02711 1.06753 6.96111 1.00153 6.87958 0.961413C6.6751 0.860469 6.42663 0.944589 6.32439 1.14907L4.85552 4.12692L1.56965 4.60447C1.47906 4.61741 1.39624 4.66012 1.33282 4.72482C1.25616 4.80362 1.21391 4.90963 1.21537 5.01956C1.21682 5.12949 1.26186 5.23434 1.34059 5.31108L3.71795 7.62891L3.15629 10.9018C3.14312 10.978 3.15154 11.0563 3.18061 11.1279C3.20968 11.1995 3.25822 11.2615 3.32074 11.3069C3.38325 11.3523 3.45724 11.3793 3.53431 11.3848C3.61138 11.3903 3.68845 11.374 3.75678 11.338L6.69581 9.79274L9.63484 11.338C9.71508 11.3807 9.80826 11.3949 9.89756 11.3794C10.1227 11.3406 10.2742 11.127 10.2353 10.9018L9.67367 7.62891L12.051 5.31108C12.1157 5.24766 12.1584 5.16484 12.1714 5.07425C12.2063 4.84777 12.0484 4.63811 11.822 4.60447Z" fill="#B2B2B2"/>
</g>
<defs>
<clipPath id="clip0_91_709">
<rect width="13.2522" height="13.2522" fill="white" transform="translate(0.0693359 0.03479)"/>
</clipPath>
</defs>
</svg>
