<svg width="21" height="21" viewBox="0 0 21 21" fill="none" xmlns="http://www.w3.org/2000/svg">
<path d="M16.9764 4.39217C16.0971 3.51256 14.9312 2.97777 13.6909 2.88505C12.4506 2.79233 11.2182 3.14784 10.2178 3.88693C9.164 3.1031 7.85232 2.74767 6.54692 2.89222C5.24152 3.03677 4.03937 3.67057 3.18257 4.66598C2.32576 5.66139 1.87793 6.94447 1.92926 8.25685C1.9806 9.56922 2.52728 10.8134 3.45923 11.7388L9.62977 17.9094C9.70677 17.987 9.79838 18.0486 9.89931 18.0907C10.0002 18.1327 10.1085 18.1544 10.2178 18.1544C10.3272 18.1544 10.4354 18.1327 10.5364 18.0907C10.6373 18.0486 10.7289 17.987 10.8059 17.9094L16.9764 11.7388C17.459 11.2566 17.8419 10.6839 18.1031 10.0536C18.3643 9.42335 18.4987 8.74777 18.4987 8.06551C18.4987 7.38324 18.3643 6.70767 18.1031 6.07738C17.8419 5.44709 17.459 4.87445 16.9764 4.39217ZM15.8086 10.571L10.2178 16.1535L4.62708 10.571C4.1344 10.0763 3.79879 9.44709 3.66234 8.76236C3.52589 8.07763 3.59467 7.36785 3.86007 6.72206C4.12546 6.07628 4.57564 5.52324 5.15414 5.13232C5.73263 4.74141 6.41368 4.53003 7.11186 4.52469C8.04457 4.52698 8.93825 4.89934 9.59664 5.56002C9.67364 5.63765 9.76524 5.69927 9.86618 5.74132C9.96711 5.78337 10.0754 5.80502 10.1847 5.80502C10.294 5.80502 10.4023 5.78337 10.5032 5.74132C10.6042 5.69927 10.6958 5.63765 10.7728 5.56002C11.4506 4.97268 12.3262 4.66479 13.2224 4.69865C14.1186 4.73251 14.9685 5.10559 15.6 5.74239C16.2316 6.37919 16.5976 7.23214 16.624 8.12861C16.6504 9.02508 16.3353 9.89811 15.7423 10.571H15.8086Z" fill="#535399"/>
</svg>
