<svg width="19" height="19" viewBox="0 0 19 19" fill="none" xmlns="http://www.w3.org/2000/svg">
<path d="M11.6435 8.04062H9.43484V5.83192C9.43484 5.63666 9.35727 5.4494 9.2192 5.31133C9.08113 5.17326 8.89386 5.09569 8.6986 5.09569C8.50334 5.09569 8.31608 5.17326 8.17801 5.31133C8.03994 5.4494 7.96237 5.63666 7.96237 5.83192V8.04062H5.75368C5.55842 8.04062 5.37115 8.11819 5.23308 8.25626C5.09501 8.39433 5.01744 8.58159 5.01744 8.77685C5.01744 8.97211 5.09501 9.15937 5.23308 9.29744C5.37115 9.43552 5.55842 9.51308 5.75368 9.51308H7.96237V11.7218C7.96237 11.917 8.03994 12.1043 8.17801 12.2424C8.31608 12.3804 8.50334 12.458 8.6986 12.458C8.89386 12.458 9.08113 12.3804 9.2192 12.2424C9.35727 12.1043 9.43484 11.917 9.43484 11.7218V9.51308H11.6435C11.8388 9.51308 12.0261 9.43552 12.1641 9.29744C12.3022 9.15937 12.3798 8.97211 12.3798 8.77685C12.3798 8.58159 12.3022 8.39433 12.1641 8.25626C12.0261 8.11819 11.8388 8.04062 11.6435 8.04062ZM16.5836 15.6164L13.8522 12.9071C14.9125 11.5851 15.4259 9.90719 15.287 8.21827C15.1481 6.52936 14.3673 4.95786 13.1053 3.8269C11.8433 2.69595 10.196 2.0915 8.50197 2.13786C6.80799 2.18421 5.19614 2.87784 3.99787 4.07611C2.79959 5.27439 2.10596 6.88624 2.05961 8.58022C2.01326 10.2742 2.6177 11.9216 3.74865 13.1836C4.87961 14.4456 6.45111 15.2263 8.14002 15.3652C9.82894 15.5042 11.5069 14.9907 12.8289 13.9305L15.5382 16.6398C15.6066 16.7088 15.6881 16.7636 15.7778 16.801C15.8675 16.8383 15.9637 16.8576 16.0609 16.8576C16.1581 16.8576 16.2543 16.8383 16.3441 16.801C16.4338 16.7636 16.5152 16.7088 16.5836 16.6398C16.7163 16.5025 16.7905 16.3191 16.7905 16.1281C16.7905 15.9372 16.7163 15.7537 16.5836 15.6164ZM8.6986 13.9305C7.67931 13.9305 6.68291 13.6282 5.8354 13.0619C4.98789 12.4956 4.32734 11.6908 3.93728 10.7491C3.54721 9.80736 3.44515 8.77113 3.64401 7.77143C3.84286 6.77172 4.33369 5.85344 5.05444 5.13269C5.77519 4.41194 6.69348 3.92111 7.69318 3.72225C8.69289 3.5234 9.72911 3.62546 10.6708 4.01552C11.6125 4.40559 12.4174 5.06614 12.9837 5.91365C13.55 6.76116 13.8522 7.75756 13.8522 8.77685C13.8522 10.1437 13.3093 11.4545 12.3428 12.421C11.3763 13.3875 10.0654 13.9305 8.6986 13.9305Z" fill="#535399"/>
</svg>
