<svg width="14" height="14" viewBox="0 0 14 14" fill="none" xmlns="http://www.w3.org/2000/svg">
<g clip-path="url(#clip0_91_707)">
<path d="M11.9006 4.60447L8.61472 4.12692L7.14585 1.14907C7.10573 1.06753 7.03973 1.00153 6.95819 0.961413C6.75372 0.860469 6.50524 0.944589 6.403 1.14907L4.93413 4.12692L1.64827 4.60447C1.55767 4.61741 1.47485 4.66012 1.41143 4.72482C1.33477 4.80362 1.29253 4.90963 1.29398 5.01956C1.29544 5.12949 1.34048 5.23434 1.4192 5.31108L3.79657 7.62891L3.2349 10.9018C3.22173 10.978 3.23016 11.0563 3.25922 11.1279C3.28829 11.1995 3.33683 11.2615 3.39935 11.3069C3.46187 11.3523 3.53586 11.3793 3.61293 11.3848C3.69 11.3903 3.76706 11.374 3.83539 11.338L6.77442 9.79274L9.71346 11.338C9.79369 11.3807 9.88687 11.3949 9.97617 11.3794C10.2014 11.3406 10.3528 11.127 10.3139 10.9018L9.75228 7.62891L12.1296 5.31108C12.1944 5.24766 12.2371 5.16484 12.25 5.07425C12.2849 4.84777 12.1271 4.63811 11.9006 4.60447Z" fill="#FFC416"/>
</g>
<defs>
<clipPath id="clip0_91_707">
<rect width="13.2522" height="13.2522" fill="white" transform="translate(0.147949 0.03479)"/>
</clipPath>
</defs>
</svg>
